<svg width="140" height="25" viewBox="0 0 140 25" fill="none" xmlns="http://www.w3.org/2000/svg">
<path d="M24.4948 12.5V13.2954L17.787 14.3566C15.8916 14.7017 14.4032 16.2218 14.0738 18.1491L13.0263 25H12.2476V14.3747L14.0822 12.5009L24.4948 12.5Z" fill="#C3A770"/>
<path d="M0 12.5V11.7046L6.70772 10.6434C8.60322 10.2983 10.0916 8.7782 10.421 6.85088L11.4685 0H12.2472V10.6253L10.4126 12.4991H0V12.5Z" fill="#C3A770"/>
<path d="M38.6392 19.9086C37.3245 19.9086 36.19 19.6134 35.2376 19.023C34.2843 18.4325 33.5444 17.5943 33.0189 16.5072C32.4925 15.4203 32.2297 14.1465 32.2297 12.6839C32.2297 11.2214 32.5058 9.84305 33.0578 8.70961C33.6099 7.57616 34.3725 6.6905 35.3458 6.05264C36.319 5.41574 37.4564 5.09729 38.7578 5.09729C39.3763 5.09729 39.9018 5.1544 40.3353 5.26861C40.7688 5.38283 41.1473 5.51737 41.4698 5.67127C41.7923 5.82614 42.0844 5.95972 42.3472 6.07393C42.61 6.18815 42.8794 6.24525 43.1564 6.24525C43.3935 6.24525 43.5737 6.15427 43.6989 5.97326C43.8241 5.79226 43.9057 5.50769 43.9455 5.11761H44.1628C44.1495 5.47962 44.14 5.88228 44.1334 6.32463C44.1268 6.76697 44.1172 7.30417 44.104 7.9343C44.0907 8.56539 44.0841 9.36974 44.0841 10.3493H43.8668C43.8004 9.36974 43.5509 8.50828 43.1174 7.76297C42.684 7.01863 42.1442 6.43787 41.5001 6.02263C40.856 5.60739 40.1323 5.39832 39.3307 5.39832C38.3974 5.39832 37.5986 5.67708 36.9346 6.23364C36.2707 6.7902 35.7679 7.6023 35.4264 8.66896C35.084 9.73564 34.9133 11.0336 34.9133 12.563C34.9133 14.8037 35.2813 16.544 36.0173 17.7849C36.7535 19.0258 37.7855 19.6463 39.1135 19.6463C39.6267 19.6463 40.0668 19.5553 40.4349 19.3743C40.8029 19.1933 41.079 18.932 41.263 18.5893C41.447 18.2476 41.539 17.8343 41.539 17.3513V15.218C41.539 14.7486 41.4992 14.3962 41.4205 14.161C41.3417 13.9268 41.1805 13.7583 40.9376 13.6577C40.6939 13.557 40.3363 13.4931 39.8629 13.466V13.2444C40.1389 13.258 40.5164 13.2714 40.9964 13.285C41.4764 13.2986 41.9991 13.3054 42.5644 13.3054C43.1686 13.3054 43.6818 13.2986 44.103 13.285C44.5232 13.2714 44.8723 13.258 45.1483 13.2444V13.466C44.859 13.4931 44.6323 13.5503 44.4682 13.6373C44.3041 13.7245 44.1989 13.8861 44.1523 14.1204C44.1059 14.3555 44.0831 14.7137 44.0831 15.1967V19.866H43.8858C43.8203 19.4633 43.7245 19.1855 43.6003 19.0306C43.4751 18.8768 43.2816 18.7993 43.0188 18.7993C42.7561 18.7993 42.5057 18.8526 42.2296 18.96C41.9535 19.0674 41.6509 19.1981 41.3218 19.3521C40.9927 19.5069 40.6114 19.6366 40.1778 19.744C39.7443 19.8514 39.2311 19.9047 38.6392 19.9047V19.9086Z" fill="#EDE2D9"/>
<path d="M52.3807 19.9085C51.2889 19.9085 50.3792 19.7072 49.6488 19.3046C48.9193 18.9019 48.373 18.2814 48.0115 17.4432C47.6501 16.605 47.4689 15.5683 47.4689 14.3342V7.33025C47.4689 6.8608 47.4395 6.50847 47.3798 6.27327C47.321 6.03903 47.1654 5.87447 46.9159 5.78059C46.6665 5.6867 46.2975 5.62669 45.8118 5.59959V5.37793C46.3639 5.41858 47.3504 5.43794 48.7704 5.43794C50.1904 5.43794 51.1305 5.41762 51.7091 5.37793V5.59959C51.2225 5.62669 50.8573 5.6838 50.6145 5.77091C50.3707 5.85803 50.2103 6.02257 50.1316 6.26359C50.0529 6.5046 50.0131 6.8608 50.0131 7.33025V14.6555C50.0131 16.3195 50.2692 17.5197 50.7823 18.2582C51.2955 18.9958 52.1302 19.3655 53.2865 19.3655C54.4429 19.3655 55.2919 18.9164 55.8705 18.0172C56.4491 17.118 56.7384 15.79 56.7384 14.0322V7.83357C56.7384 7.24313 56.6957 6.79692 56.6104 6.49492C56.525 6.19293 56.3675 5.98192 56.137 5.86093C55.9066 5.73994 55.5622 5.65282 55.1012 5.59959V5.37793C55.2331 5.39148 55.4598 5.40503 55.7813 5.41858C56.1039 5.43213 56.4615 5.43891 56.856 5.43891C57.2506 5.43891 57.6187 5.43213 57.9213 5.41858C58.2239 5.40503 58.4534 5.39148 58.6119 5.37793V5.59959C58.1651 5.65379 57.8226 5.7438 57.5865 5.87157C57.3493 5.99934 57.1852 6.21713 57.0932 6.52589C57.0012 6.83467 56.9547 7.29056 56.9547 7.89455V14.0729C56.9547 16.0455 56.5961 17.511 55.88 18.4702C55.1628 19.4294 53.9961 19.9095 52.3797 19.9095L52.3807 19.9085Z" fill="#EDE2D9"/>
<path d="M59.8008 19.6259V19.4042C60.2741 19.3772 60.6289 19.321 60.866 19.233C61.1031 19.1458 61.2568 18.9851 61.3298 18.7499C61.4019 18.5156 61.438 18.1565 61.438 17.6736V7.33025C61.438 6.84725 61.4019 6.48524 61.3298 6.24326C61.2577 6.00224 61.0994 5.8377 60.8565 5.75058C60.6127 5.66347 60.2617 5.61314 59.8017 5.59959V5.37793C60.4457 5.39148 61.2909 5.40503 62.3363 5.41858C63.3816 5.43213 64.6015 5.43891 65.9949 5.43891H67.3656C67.819 5.43891 68.2535 5.43213 68.6671 5.41858C69.0816 5.40503 69.4525 5.39148 69.7816 5.37793C69.7816 6.0758 69.811 6.76691 69.8708 7.45124C69.9296 8.13557 70.0055 8.79957 70.0975 9.44322H69.8803C69.6962 8.4637 69.4629 7.69903 69.1803 7.14924C68.8975 6.59946 68.5456 6.21325 68.1254 5.99256C67.7042 5.77091 67.1788 5.66056 66.547 5.66056H63.983V17.8159C63.983 18.2456 64.0124 18.5708 64.0722 18.7915C64.131 19.0132 64.2723 19.1603 64.4962 19.2339C64.72 19.3074 65.0217 19.3442 65.4039 19.3442H66.3307C67.0934 19.3442 67.7375 19.2 68.264 18.9115C68.7894 18.6231 69.2428 18.1333 69.6241 17.4422C70.0055 16.7512 70.3536 15.8093 70.6695 14.6149H70.8867C70.808 15.487 70.7387 16.3427 70.6799 17.1809C70.6211 18.0191 70.6041 18.8341 70.6306 19.6259C70.0387 19.5988 69.3614 19.5823 68.5987 19.5755C67.8361 19.5688 66.9292 19.5659 65.8773 19.5659C64.5227 19.5659 63.3294 19.5688 62.2974 19.5755C61.2654 19.5823 60.4334 19.5988 59.8026 19.6259H59.8008ZM63.43 12.5619V12.3403H66.842V12.5619H63.43ZM67.8874 15.5605C67.7953 14.8095 67.6501 14.2219 67.4538 13.7999C67.2566 13.3769 66.9805 13.0653 66.6257 12.8639C66.271 12.6626 65.8299 12.5619 65.3044 12.5619V12.3403C66.0272 12.3403 66.5896 12.106 66.9909 11.6356C67.3922 11.1662 67.6711 10.4083 67.8294 9.36197H68.0267C67.9603 10.1934 67.9309 10.8274 67.9376 11.2639C67.9442 11.7005 67.9471 12.0993 67.9471 12.4613C67.9471 12.7564 67.9499 13.0517 67.9566 13.3469C67.9632 13.6422 67.9793 13.9605 68.0059 14.3032C68.0324 14.6449 68.0581 15.065 68.0847 15.5615H67.8874V15.5605Z" fill="#EDE2D9"/>
<path d="M77.619 19.9086C76.9218 19.9086 76.3365 19.8408 75.8632 19.7072C75.3898 19.5737 74.9952 19.4353 74.6793 19.2949C74.3635 19.1536 74.0941 19.0839 73.8712 19.0839C73.6872 19.0839 73.5392 19.1546 73.4272 19.2949C73.3153 19.4363 73.2338 19.6337 73.1806 19.8882H72.9634C72.99 19.5659 72.9994 19.1943 72.9928 18.7713C72.9861 18.3483 72.9861 17.7955 72.9928 17.1113C72.9994 16.427 73.0023 15.5616 73.0023 14.5153H73.2195C73.3504 16.1249 73.7687 17.3832 74.4716 18.2882C75.1745 19.1943 76.1184 19.6463 77.3012 19.6463C78.1426 19.6463 78.8265 19.4013 79.352 18.9116C79.8775 18.4219 80.1413 17.7549 80.1413 16.9089C80.1413 16.3988 80.0255 15.9401 79.796 15.5306C79.5654 15.1212 79.2145 14.7427 78.7412 14.3933C78.2678 14.0448 77.6493 13.7022 76.8867 13.3673C76.0453 12.9917 75.3519 12.5823 74.8065 12.1399C74.261 11.6976 73.856 11.2011 73.5933 10.6513C73.3296 10.1015 73.1987 9.5043 73.1987 8.86061C73.1987 8.10949 73.3666 7.4484 73.7014 6.87828C74.0362 6.30817 74.5067 5.86873 75.1119 5.55996C75.7161 5.25119 76.4532 5.09729 77.3211 5.09729C77.9785 5.09729 78.5173 5.16408 78.9385 5.29862C79.3596 5.43316 79.7106 5.57351 79.9933 5.7216C80.2759 5.8697 80.5226 5.94326 80.7332 5.94326C80.9304 5.94326 81.0813 5.87647 81.1865 5.74193C81.2919 5.60835 81.3706 5.40025 81.4238 5.11761H81.6609C81.6343 5.43993 81.6144 5.77484 81.6021 6.1233C81.5888 6.47272 81.5793 6.92861 81.5727 7.49195C81.566 8.05529 81.5631 8.78027 81.5631 9.66492H81.326C81.234 8.37664 80.8489 7.33708 80.1726 6.54532C79.4953 5.75355 78.6501 5.35766 77.638 5.35766C76.862 5.35766 76.2577 5.58222 75.8233 6.03134C75.3898 6.48143 75.1726 7.068 75.1726 7.79201C75.1726 8.275 75.2807 8.70767 75.498 9.09001C75.7152 9.47233 76.0766 9.83823 76.5832 10.1867C77.0887 10.5361 77.7765 10.9049 78.6444 11.294C79.9724 11.9251 80.9124 12.5891 81.4645 13.286C82.0166 13.9838 82.2926 14.8356 82.2926 15.8423C82.2926 17.09 81.8752 18.0792 81.0405 18.811C80.2057 19.5427 79.0647 19.9076 77.619 19.9076V19.9086Z" fill="#EDE2D9"/>
<path d="M86.0037 19.6259V19.4042C86.6213 19.3772 87.0851 19.3172 87.3943 19.2232C87.7039 19.1294 87.9104 18.9513 88.0154 18.6899C88.1213 18.4286 88.1729 18.0297 88.1729 17.4926V5.6596H87.2464C86.589 5.6596 86.0597 5.79414 85.6584 6.06226C85.2572 6.33038 84.9185 6.78337 84.6426 7.42027C84.3665 8.05716 84.1227 8.93992 83.9131 10.0666H83.6958C83.7879 9.2884 83.8571 8.51403 83.9027 7.74259C83.9491 6.97114 83.9785 6.18325 83.9918 5.37793C84.5306 5.39148 85.1187 5.40503 85.7571 5.41858C86.3946 5.43213 87.0358 5.43891 87.6794 5.43891H91.2197C91.8707 5.43891 92.5147 5.43213 93.1534 5.41858C93.7904 5.40503 94.3662 5.39148 94.8789 5.37793C94.9052 6.18325 94.948 6.97502 95.0067 7.75227C95.0653 8.53048 95.1414 9.30189 95.2333 10.0666H94.9962C94.8255 9.19447 94.6479 8.48403 94.4642 7.93327C94.2804 7.38348 94.0564 6.93727 93.793 6.59462C93.5305 6.25294 93.2348 6.01096 92.9058 5.86963C92.5768 5.72832 92.1629 5.65863 91.6633 5.65863H90.7165V17.4916C90.7165 18.0289 90.7725 18.4276 90.8845 18.6889C90.9948 18.9503 91.2162 19.1284 91.5443 19.2222C91.8733 19.3162 92.3265 19.3762 92.9058 19.4033V19.6249C92.5243 19.5979 92.0212 19.5814 91.3973 19.5746C90.7734 19.5678 90.1382 19.5649 89.4933 19.5649C88.7705 19.5649 88.0959 19.5678 87.4721 19.5746C86.848 19.5814 86.3576 19.5979 86.0027 19.6249L86.0037 19.6259Z" fill="#EDE2D9"/>
<path d="M96.4303 19.6259V19.4042C96.8906 19.3772 97.2423 19.321 97.4856 19.233C97.7279 19.1458 97.8863 18.9813 97.9589 18.7403C98.0307 18.4982 98.0666 18.143 98.0666 17.6736V7.33025C98.0666 6.8337 98.0307 6.47169 97.9589 6.24326C97.8863 6.0158 97.7323 5.85415 97.4952 5.76026C97.2572 5.66638 96.9028 5.61314 96.4294 5.59959V5.37793C96.8494 5.39148 97.3228 5.40503 97.8496 5.41858C98.3754 5.43213 98.9013 5.43891 99.4281 5.43891C100.177 5.43891 100.851 5.42923 101.449 5.4089C102.048 5.38857 102.524 5.37889 102.88 5.37889V5.60055C102.209 5.61411 101.713 5.66056 101.391 5.74187C101.068 5.82221 100.859 5.97998 100.76 6.21519C100.661 6.4504 100.612 6.82208 100.612 7.33219V17.8168C100.612 18.2466 100.645 18.5718 100.711 18.7925C100.776 19.0141 100.917 19.1613 101.134 19.2348C101.351 19.3084 101.651 19.3452 102.032 19.3452H102.959C103.55 19.3452 104.059 19.262 104.486 19.0935C104.913 18.9261 105.296 18.658 105.631 18.2882C105.965 17.9195 106.268 17.4326 106.537 16.8296C106.807 16.2255 107.06 15.488 107.297 14.6159H107.515C107.449 15.5015 107.383 16.3601 107.317 17.1915C107.251 18.0239 107.232 18.8351 107.258 19.6269C106.745 19.5997 106.115 19.5833 105.365 19.5765C104.616 19.5697 103.682 19.5669 102.565 19.5669C101.21 19.5669 100.012 19.5697 98.9661 19.5765C97.9204 19.5833 97.0752 19.5997 96.4312 19.6269L96.4303 19.6259Z" fill="#EDE2D9"/>
<path d="M108.677 19.6259V19.4042C109.162 19.3636 109.518 19.3036 109.742 19.2232C109.966 19.1429 110.117 18.9813 110.196 18.7403C110.274 18.4982 110.314 18.143 110.314 17.6736V7.33025C110.314 6.84725 110.274 6.48814 110.196 6.25391C110.117 6.01967 109.962 5.85803 109.732 5.77091C109.501 5.6838 109.15 5.62669 108.677 5.59959V5.37793C108.953 5.39148 109.343 5.40503 109.85 5.41858C110.356 5.43213 110.952 5.43891 111.634 5.43891C112.279 5.43891 112.855 5.43213 113.36 5.41858C113.866 5.40503 114.264 5.39148 114.553 5.37793V5.59959C114.08 5.62669 113.718 5.6838 113.468 5.77091C113.219 5.85803 113.053 6.01967 112.975 6.25391C112.896 6.48912 112.857 6.84725 112.857 7.33025V17.6746C112.857 18.1575 112.892 18.5166 112.964 18.7509C113.037 18.9861 113.201 19.1429 113.458 19.2242C113.714 19.3046 114.079 19.3655 114.552 19.4052V19.6269C114.263 19.6133 113.865 19.5997 113.359 19.5862C112.852 19.5727 112.277 19.5659 111.633 19.5659C110.95 19.5659 110.355 19.5727 109.849 19.5862C109.343 19.5997 108.952 19.6133 108.676 19.6269L108.677 19.6259Z" fill="#EDE2D9"/>
<path d="M120.88 19.9086C120.183 19.9086 119.598 19.8408 119.124 19.7072C118.651 19.5737 118.256 19.4353 117.94 19.2949C117.625 19.1536 117.355 19.0839 117.133 19.0839C116.948 19.0839 116.8 19.1546 116.688 19.2949C116.576 19.4363 116.495 19.6337 116.442 19.8882H116.225C116.251 19.5659 116.26 19.1943 116.254 18.7713C116.247 18.3483 116.247 17.7955 116.254 17.1113C116.26 16.427 116.264 15.5616 116.264 14.5153H116.481C116.611 16.1249 117.03 17.3832 117.733 18.2882C118.436 19.1943 119.38 19.6463 120.563 19.6463C121.404 19.6463 122.088 19.4013 122.613 18.9116C123.139 18.4219 123.402 17.7549 123.402 16.9089C123.402 16.3988 123.287 15.9401 123.057 15.5306C122.826 15.1212 122.476 14.7427 122.002 14.3933C121.529 14.0448 120.911 13.7022 120.148 13.3673C119.306 12.9917 118.613 12.5823 118.068 12.1399C117.522 11.6976 117.117 11.2011 116.855 10.6513C116.591 10.1015 116.46 9.5043 116.46 8.86061C116.46 8.10949 116.628 7.4484 116.963 6.87828C117.297 6.30817 117.768 5.86873 118.374 5.55996C118.977 5.25119 119.714 5.09729 120.582 5.09729C121.24 5.09729 121.778 5.16408 122.2 5.29862C122.621 5.43316 122.972 5.57351 123.254 5.7216C123.537 5.8697 123.784 5.94326 123.995 5.94326C124.191 5.94326 124.343 5.87647 124.448 5.74193C124.553 5.60835 124.632 5.40025 124.685 5.11761H124.922C124.896 5.43993 124.876 5.77484 124.863 6.1233C124.85 6.47272 124.841 6.92861 124.834 7.49195C124.828 8.05529 124.824 8.78027 124.824 9.66492H124.587C124.495 8.37664 124.11 7.33708 123.434 6.54532C122.756 5.75355 121.911 5.35766 120.899 5.35766C120.124 5.35766 119.519 5.58222 119.085 6.03134C118.651 6.48143 118.434 7.068 118.434 7.79201C118.434 8.275 118.542 8.70767 118.759 9.09001C118.976 9.47233 119.338 9.83823 119.844 10.1867C120.35 10.5361 121.038 10.9049 121.906 11.294C123.233 11.9251 124.174 12.5891 124.726 13.286C125.278 13.9838 125.554 14.8356 125.554 15.8423C125.554 17.09 125.136 18.0792 124.302 18.811C123.467 19.5427 122.326 19.9076 120.88 19.9076V19.9086Z" fill="#EDE2D9"/>
<path d="M129.085 19.6259V19.4042C129.703 19.3772 130.167 19.3172 130.476 19.2232C130.785 19.1294 130.992 18.9513 131.098 18.6899C131.203 18.4286 131.255 18.0297 131.255 17.4926V5.6596H130.328C129.671 5.6596 129.141 5.79414 128.74 6.06226C128.339 6.33038 128 6.78337 127.725 7.42027C127.448 8.05716 127.205 8.93992 126.995 10.0666H126.778C126.87 9.2884 126.939 8.51403 126.984 7.74259C127.031 6.97114 127.06 6.18325 127.074 5.37793C127.613 5.39148 128.201 5.40503 128.838 5.41858C129.476 5.43213 130.118 5.43891 130.762 5.43891H134.302C134.952 5.43891 135.596 5.43213 136.235 5.41858C136.873 5.40503 137.448 5.39148 137.96 5.37793C137.987 6.18325 138.029 6.97502 138.088 7.75227C138.148 8.53048 138.223 9.30189 138.315 10.0666H138.078C137.907 9.19447 137.73 8.48403 137.546 7.93327C137.362 7.38348 137.138 6.93727 136.875 6.59462C136.612 6.25294 136.316 6.01096 135.987 5.86963C135.658 5.72832 135.244 5.65863 134.745 5.65863H133.798V17.4916C133.798 18.0289 133.854 18.4276 133.966 18.6889C134.077 18.9503 134.298 19.1284 134.626 19.2222C134.956 19.3162 135.409 19.3762 135.987 19.4033V19.6249C135.606 19.5979 135.103 19.5814 134.479 19.5746C133.855 19.5678 133.22 19.5649 132.576 19.5649C131.853 19.5649 131.178 19.5678 130.553 19.5746C129.93 19.5814 129.44 19.5979 129.084 19.6249L129.085 19.6259Z" fill="#EDE2D9"/>
</svg>
